<mxfile modified="2020-08-23T16:26:08.670Z" host="app.diagrams.net" agent="5.0 (X11; Linux x86_64) AppleWebKit/537.36 (KHTML, like Gecko) Chrome/83.0.4103.116 Safari/537.36" etag="0ejfTp3yysslm41xhLgO" version="13.6.4" type="gitlab">
  <diagram id="Ht1M8jgEwFfnCIfOTk4-" name="Page-1">
    <mxGraphModel dx="1294" dy="708" grid="1" gridSize="10" guides="1" tooltips="1" connect="1" arrows="1" fold="1" page="1" pageScale="1" pageWidth="1200" pageHeight="1920" math="0" shadow="0">
      <root>
        <mxCell id="0" />
        <mxCell id="1" parent="0" />
        <mxCell id="-QjtrjUzRDEMRZ5MF8oH-47" value="&lt;font face=&quot;Garamond&quot;&gt;vpcSiLK Architecture&lt;/font&gt;" style="text;html=1;resizable=0;points=[];autosize=1;align=left;verticalAlign=top;spacingTop=-4;fontSize=30;fontStyle=1" parent="1" vertex="1">
          <mxGeometry x="52.5" y="64.5" width="380" height="40" as="geometry" />
        </mxCell>
        <mxCell id="-QjtrjUzRDEMRZ5MF8oH-48" value="DRAFT - 7 Aug 2020" style="text;html=1;resizable=0;points=[];autosize=1;align=left;verticalAlign=top;spacingTop=-4;fontSize=16;fontFamily=Garamond;" parent="1" vertex="1">
          <mxGeometry x="52.5" y="114.5" width="180" height="20" as="geometry" />
        </mxCell>
        <mxCell id="SCVMTBWpLvtzJIhz15lM-1" value="" style="line;strokeWidth=2;html=1;fontSize=14;" parent="1" vertex="1">
          <mxGeometry x="48.5" y="139.5" width="1060" height="10" as="geometry" />
        </mxCell>
        <mxCell id="o8gPVCex7NLgK0Pj0_RW-1" value="" style="outlineConnect=0;fontColor=#232F3E;gradientColor=#945DF2;gradientDirection=north;fillColor=#5A30B5;strokeColor=#ffffff;dashed=0;verticalLabelPosition=bottom;verticalAlign=top;align=center;html=1;fontSize=12;fontStyle=0;aspect=fixed;shape=mxgraph.aws4.resourceIcon;resIcon=mxgraph.aws4.vpc;" parent="1" vertex="1">
          <mxGeometry x="48.5" y="171.5" width="78" height="78" as="geometry" />
        </mxCell>
        <mxCell id="o8gPVCex7NLgK0Pj0_RW-2" value="" style="outlineConnect=0;fontColor=#232F3E;gradientColor=none;fillColor=#5A30B5;strokeColor=none;dashed=0;verticalLabelPosition=bottom;verticalAlign=top;align=center;html=1;fontSize=12;fontStyle=0;aspect=fixed;pointerEvents=1;shape=mxgraph.aws4.flow_logs;" parent="1" vertex="1">
          <mxGeometry x="248.5" y="171.5" width="78" height="78" as="geometry" />
        </mxCell>
        <mxCell id="o8gPVCex7NLgK0Pj0_RW-3" value="" style="outlineConnect=0;fontColor=#232F3E;gradientColor=#945DF2;gradientDirection=north;fillColor=#5A30B5;strokeColor=#ffffff;dashed=0;verticalLabelPosition=bottom;verticalAlign=top;align=center;html=1;fontSize=12;fontStyle=0;aspect=fixed;shape=mxgraph.aws4.resourceIcon;resIcon=mxgraph.aws4.vpc;" parent="1" vertex="1">
          <mxGeometry x="48.5" y="278" width="78" height="78" as="geometry" />
        </mxCell>
        <mxCell id="o8gPVCex7NLgK0Pj0_RW-4" value="" style="outlineConnect=0;fontColor=#232F3E;gradientColor=#945DF2;gradientDirection=north;fillColor=#5A30B5;strokeColor=#ffffff;dashed=0;verticalLabelPosition=bottom;verticalAlign=top;align=center;html=1;fontSize=12;fontStyle=0;aspect=fixed;shape=mxgraph.aws4.resourceIcon;resIcon=mxgraph.aws4.vpc;" parent="1" vertex="1">
          <mxGeometry x="48.5" y="425.5" width="78" height="78" as="geometry" />
        </mxCell>
        <mxCell id="o8gPVCex7NLgK0Pj0_RW-5" value="" style="outlineConnect=0;fontColor=#232F3E;gradientColor=none;fillColor=#5A30B5;strokeColor=none;dashed=0;verticalLabelPosition=bottom;verticalAlign=top;align=center;html=1;fontSize=12;fontStyle=0;aspect=fixed;pointerEvents=1;shape=mxgraph.aws4.flow_logs;" parent="1" vertex="1">
          <mxGeometry x="248.5" y="278" width="78" height="78" as="geometry" />
        </mxCell>
        <mxCell id="o8gPVCex7NLgK0Pj0_RW-6" value="" style="outlineConnect=0;fontColor=#232F3E;gradientColor=none;fillColor=#5A30B5;strokeColor=none;dashed=0;verticalLabelPosition=bottom;verticalAlign=top;align=center;html=1;fontSize=12;fontStyle=0;aspect=fixed;pointerEvents=1;shape=mxgraph.aws4.flow_logs;" parent="1" vertex="1">
          <mxGeometry x="248.5" y="425.5" width="78" height="78" as="geometry" />
        </mxCell>
        <mxCell id="bL2OYi6fTM-XV55zECfy-4" value="" style="edgeStyle=orthogonalEdgeStyle;rounded=0;orthogonalLoop=1;jettySize=auto;html=1;" parent="1" source="o8gPVCex7NLgK0Pj0_RW-7" target="bL2OYi6fTM-XV55zECfy-1" edge="1">
          <mxGeometry relative="1" as="geometry" />
        </mxCell>
        <mxCell id="o8gPVCex7NLgK0Pj0_RW-7" value="" style="outlineConnect=0;fontColor=#232F3E;gradientColor=#60A337;gradientDirection=north;fillColor=#277116;strokeColor=#ffffff;dashed=0;verticalLabelPosition=bottom;verticalAlign=top;align=center;html=1;fontSize=12;fontStyle=0;aspect=fixed;shape=mxgraph.aws4.resourceIcon;resIcon=mxgraph.aws4.s3;" parent="1" vertex="1">
          <mxGeometry x="448.5" y="282.5" width="78" height="78" as="geometry" />
        </mxCell>
        <mxCell id="4NLjydOKsZYuCcSBGG9q-1" value="&lt;font face=&quot;Garamond&quot;&gt;container -silk&lt;/font&gt;" style="outlineConnect=0;fontColor=#232F3E;gradientColor=none;strokeColor=#232F3E;fillColor=#ffffff;dashed=0;verticalLabelPosition=bottom;verticalAlign=top;align=center;html=1;fontSize=12;fontStyle=0;aspect=fixed;shape=mxgraph.aws4.resourceIcon;resIcon=mxgraph.aws4.container_1;" parent="1" vertex="1">
          <mxGeometry x="850" y="216.5" width="60" height="60" as="geometry" />
        </mxCell>
        <mxCell id="4NLjydOKsZYuCcSBGG9q-2" value="&lt;font face=&quot;Garamond&quot;&gt;container - cron&lt;/font&gt;" style="outlineConnect=0;fontColor=#232F3E;gradientColor=none;strokeColor=#232F3E;fillColor=#ffffff;dashed=0;verticalLabelPosition=bottom;verticalAlign=top;align=center;html=1;fontSize=12;fontStyle=0;aspect=fixed;shape=mxgraph.aws4.resourceIcon;resIcon=mxgraph.aws4.container_1;" parent="1" vertex="1">
          <mxGeometry x="850" y="396.5" width="60" height="60" as="geometry" />
        </mxCell>
        <mxCell id="4NLjydOKsZYuCcSBGG9q-4" value="1" style="rounded=1;whiteSpace=wrap;html=1;fillColor=#007CBD;strokeColor=none;fontColor=#FFFFFF;fontStyle=1;fontSize=22;labelBackgroundColor=none;" parent="1" vertex="1">
          <mxGeometry x="168.5" y="170" width="40" height="38" as="geometry" />
        </mxCell>
        <mxCell id="4NLjydOKsZYuCcSBGG9q-6" value="2" style="rounded=1;whiteSpace=wrap;html=1;fillColor=#007CBD;strokeColor=none;fontColor=#FFFFFF;fontStyle=1;fontSize=22;labelBackgroundColor=none;" parent="1" vertex="1">
          <mxGeometry x="378.5" y="219" width="40" height="38" as="geometry" />
        </mxCell>
        <mxCell id="4NLjydOKsZYuCcSBGG9q-7" value="3" style="rounded=1;whiteSpace=wrap;html=1;fillColor=#007CBD;strokeColor=none;fontColor=#FFFFFF;fontStyle=1;fontSize=22;labelBackgroundColor=none;" parent="1" vertex="1">
          <mxGeometry x="558.5" y="272.5" width="40" height="38" as="geometry" />
        </mxCell>
        <mxCell id="4NLjydOKsZYuCcSBGG9q-8" value="4" style="rounded=1;whiteSpace=wrap;html=1;fillColor=#007CBD;strokeColor=none;fontColor=#FFFFFF;fontStyle=1;fontSize=22;labelBackgroundColor=none;" parent="1" vertex="1">
          <mxGeometry x="891.5" y="200" width="40" height="38" as="geometry" />
        </mxCell>
        <mxCell id="4NLjydOKsZYuCcSBGG9q-14" value="VPC" style="text;html=1;strokeColor=none;fillColor=none;align=center;verticalAlign=middle;whiteSpace=wrap;rounded=0;fontFamily=Garamond;" parent="1" vertex="1">
          <mxGeometry x="67.5" y="252.5" width="40" height="20" as="geometry" />
        </mxCell>
        <mxCell id="4NLjydOKsZYuCcSBGG9q-15" value="VPC" style="text;html=1;strokeColor=none;fillColor=none;align=center;verticalAlign=middle;whiteSpace=wrap;rounded=0;fontFamily=Garamond;" parent="1" vertex="1">
          <mxGeometry x="67.5" y="360.5" width="40" height="20" as="geometry" />
        </mxCell>
        <mxCell id="4NLjydOKsZYuCcSBGG9q-16" value="VPC" style="text;html=1;strokeColor=none;fillColor=none;align=center;verticalAlign=middle;whiteSpace=wrap;rounded=0;fontFamily=Garamond;" parent="1" vertex="1">
          <mxGeometry x="67.5" y="512.5" width="40" height="20" as="geometry" />
        </mxCell>
        <mxCell id="4NLjydOKsZYuCcSBGG9q-17" value="...." style="text;html=1;strokeColor=none;fillColor=none;align=center;verticalAlign=middle;whiteSpace=wrap;rounded=0;" parent="1" vertex="1">
          <mxGeometry x="68.5" y="388" width="40" height="20" as="geometry" />
        </mxCell>
        <mxCell id="4NLjydOKsZYuCcSBGG9q-18" value="...." style="text;html=1;strokeColor=none;fillColor=none;align=center;verticalAlign=middle;whiteSpace=wrap;rounded=0;" parent="1" vertex="1">
          <mxGeometry x="267.5" y="388" width="40" height="20" as="geometry" />
        </mxCell>
        <mxCell id="4NLjydOKsZYuCcSBGG9q-22" value="" style="endArrow=classic;html=1;" parent="1" source="o8gPVCex7NLgK0Pj0_RW-1" target="o8gPVCex7NLgK0Pj0_RW-2" edge="1">
          <mxGeometry width="50" height="50" relative="1" as="geometry">
            <mxPoint x="598.5" y="387.5" as="sourcePoint" />
            <mxPoint x="648.5" y="337.5" as="targetPoint" />
          </mxGeometry>
        </mxCell>
        <mxCell id="4NLjydOKsZYuCcSBGG9q-23" value="" style="endArrow=classic;html=1;" parent="1" edge="1">
          <mxGeometry width="50" height="50" relative="1" as="geometry">
            <mxPoint x="126.5" y="321" as="sourcePoint" />
            <mxPoint x="248.5" y="321" as="targetPoint" />
          </mxGeometry>
        </mxCell>
        <mxCell id="4NLjydOKsZYuCcSBGG9q-24" value="" style="endArrow=classic;html=1;" parent="1" edge="1">
          <mxGeometry width="50" height="50" relative="1" as="geometry">
            <mxPoint x="126.5" y="464" as="sourcePoint" />
            <mxPoint x="248.5" y="464" as="targetPoint" />
          </mxGeometry>
        </mxCell>
        <mxCell id="4NLjydOKsZYuCcSBGG9q-25" value="" style="endArrow=classic;html=1;" parent="1" source="o8gPVCex7NLgK0Pj0_RW-2" target="o8gPVCex7NLgK0Pj0_RW-7" edge="1">
          <mxGeometry width="50" height="50" relative="1" as="geometry">
            <mxPoint x="156.5" y="240.5" as="sourcePoint" />
            <mxPoint x="278.5" y="240.5" as="targetPoint" />
          </mxGeometry>
        </mxCell>
        <mxCell id="4NLjydOKsZYuCcSBGG9q-26" value="" style="endArrow=classic;html=1;" parent="1" edge="1">
          <mxGeometry width="50" height="50" relative="1" as="geometry">
            <mxPoint x="326.5" y="321" as="sourcePoint" />
            <mxPoint x="448.5" y="321" as="targetPoint" />
          </mxGeometry>
        </mxCell>
        <mxCell id="4NLjydOKsZYuCcSBGG9q-27" value="" style="endArrow=classic;html=1;" parent="1" source="o8gPVCex7NLgK0Pj0_RW-6" target="o8gPVCex7NLgK0Pj0_RW-7" edge="1">
          <mxGeometry width="50" height="50" relative="1" as="geometry">
            <mxPoint x="338.5" y="457.5" as="sourcePoint" />
            <mxPoint x="298.5" y="260.5" as="targetPoint" />
          </mxGeometry>
        </mxCell>
        <mxCell id="4NLjydOKsZYuCcSBGG9q-29" value="" style="endArrow=classic;html=1;" parent="1" target="4NLjydOKsZYuCcSBGG9q-2" edge="1">
          <mxGeometry width="50" height="50" relative="1" as="geometry">
            <mxPoint x="880" y="296" as="sourcePoint" />
            <mxPoint x="991" y="299.5" as="targetPoint" />
          </mxGeometry>
        </mxCell>
        <mxCell id="4NLjydOKsZYuCcSBGG9q-30" value="VPC Flow logs" style="text;html=1;strokeColor=none;fillColor=none;align=center;verticalAlign=middle;whiteSpace=wrap;rounded=0;fontFamily=Garamond;" parent="1" vertex="1">
          <mxGeometry x="240.5" y="512.5" width="100" height="20" as="geometry" />
        </mxCell>
        <mxCell id="4NLjydOKsZYuCcSBGG9q-31" value="VPC Flow logs" style="text;html=1;strokeColor=none;fillColor=none;align=center;verticalAlign=middle;whiteSpace=wrap;rounded=0;fontFamily=Garamond;" parent="1" vertex="1">
          <mxGeometry x="240.5" y="361.5" width="100" height="20" as="geometry" />
        </mxCell>
        <mxCell id="4NLjydOKsZYuCcSBGG9q-32" value="VPC Flow logs" style="text;html=1;strokeColor=none;fillColor=none;align=center;verticalAlign=middle;whiteSpace=wrap;rounded=0;fontFamily=Garamond;" parent="1" vertex="1">
          <mxGeometry x="240.5" y="252.5" width="100" height="20" as="geometry" />
        </mxCell>
        <mxCell id="4NLjydOKsZYuCcSBGG9q-33" value="S3 log repository" style="text;html=1;strokeColor=none;fillColor=none;align=center;verticalAlign=middle;whiteSpace=wrap;rounded=0;fontFamily=Garamond;" parent="1" vertex="1">
          <mxGeometry x="437.5" y="371.5" width="100" height="20" as="geometry" />
        </mxCell>
        <mxCell id="7OVz4w7n9kzEPWy-4BBC-3" value="" style="rounded=0;whiteSpace=wrap;html=1;fillColor=#EAEDED;fontSize=22;fontColor=#FFFFFF;strokeColor=none;labelBackgroundColor=none;" parent="1" vertex="1">
          <mxGeometry x="40" y="551" width="1080" height="319" as="geometry" />
        </mxCell>
        <mxCell id="7OVz4w7n9kzEPWy-4BBC-4" value="1" style="rounded=1;whiteSpace=wrap;html=1;fillColor=#007CBD;strokeColor=none;fontColor=#FFFFFF;fontStyle=1;fontSize=22;labelBackgroundColor=none;" parent="1" vertex="1">
          <mxGeometry x="58" y="563" width="40" height="38" as="geometry" />
        </mxCell>
        <mxCell id="7OVz4w7n9kzEPWy-4BBC-5" value="2" style="rounded=1;whiteSpace=wrap;html=1;fillColor=#007CBD;strokeColor=none;fontColor=#FFFFFF;fontStyle=1;fontSize=22;labelBackgroundColor=none;" parent="1" vertex="1">
          <mxGeometry x="61" y="630" width="40" height="38" as="geometry" />
        </mxCell>
        <mxCell id="7OVz4w7n9kzEPWy-4BBC-6" value="3" style="rounded=1;whiteSpace=wrap;html=1;fillColor=#007CBD;strokeColor=none;fontColor=#FFFFFF;fontStyle=1;fontSize=22;labelBackgroundColor=none;" parent="1" vertex="1">
          <mxGeometry x="61" y="692" width="40" height="38" as="geometry" />
        </mxCell>
        <mxCell id="7OVz4w7n9kzEPWy-4BBC-7" value="4" style="rounded=1;whiteSpace=wrap;html=1;fillColor=#007CBD;strokeColor=none;fontColor=#FFFFFF;fontStyle=1;fontSize=22;labelBackgroundColor=none;" parent="1" vertex="1">
          <mxGeometry x="62.5" y="752.5" width="40" height="38" as="geometry" />
        </mxCell>
        <mxCell id="7OVz4w7n9kzEPWy-4BBC-13" value="&lt;font face=&quot;Garamond&quot;&gt;Collection of VPC Flow logs from different VPCs. These VPCs could also be present in multiple AWS accounts. Create VPC Flow logs per ENI (Elastic Network Interface), which plays the role of the &quot;sensor&quot; as mapped to SiLK terminology.&amp;nbsp; &lt;br&gt;&lt;/font&gt;" style="text;html=1;align=left;verticalAlign=top;spacingTop=-4;fontSize=14;labelBackgroundColor=none;whiteSpace=wrap;" parent="1" vertex="1">
          <mxGeometry x="109.5" y="562.5" width="980.5" height="118" as="geometry" />
        </mxCell>
        <mxCell id="7OVz4w7n9kzEPWy-4BBC-14" value="&lt;font face=&quot;Garamond&quot;&gt;Publish the VPC Flow logs to AWS S3, which acts as the centralised log repository for all the flow logs from multiple accounts. &lt;br&gt;&lt;/font&gt;" style="text;html=1;align=left;verticalAlign=top;spacingTop=-4;fontSize=14;labelBackgroundColor=none;whiteSpace=wrap;" parent="1" vertex="1">
          <mxGeometry x="113" y="630.5" width="981.5" height="115" as="geometry" />
        </mxCell>
        <mxCell id="7OVz4w7n9kzEPWy-4BBC-15" value="&lt;font face=&quot;Garamond&quot;&gt;Subscribe S3 events to SQS. Once files from S3 are processed, these are deleted from the Queue.&lt;br&gt;&lt;/font&gt;" style="text;html=1;align=left;verticalAlign=top;spacingTop=-4;fontSize=14;labelBackgroundColor=none;whiteSpace=wrap;" parent="1" vertex="1">
          <mxGeometry x="113" y="690.5" width="981.5" height="39.5" as="geometry" />
        </mxCell>
        <mxCell id="7OVz4w7n9kzEPWy-4BBC-16" value="The VPC flow log file will first be converted into a format that can be processed by &quot;rwtuc&quot; and also to remove erroneous records that are logged in the VPC Flow logs. SiLK binary files are created every hour." style="text;html=1;align=left;verticalAlign=top;spacingTop=-4;fontSize=14;labelBackgroundColor=none;whiteSpace=wrap;fontFamily=Garamond;" parent="1" vertex="1">
          <mxGeometry x="109.5" y="826.5" width="981.5" height="45" as="geometry" />
        </mxCell>
        <mxCell id="V7TMuckfEKck8YOUJduE-1" value="5" style="rounded=1;whiteSpace=wrap;html=1;fillColor=#007CBD;strokeColor=none;fontColor=#FFFFFF;fontStyle=1;fontSize=22;labelBackgroundColor=none;" parent="1" vertex="1">
          <mxGeometry x="61" y="830" width="40" height="38" as="geometry" />
        </mxCell>
        <mxCell id="V7TMuckfEKck8YOUJduE-2" value="Python script running as a daemon to read SQS events for new vpc log files, parse them into a format that can be converted into SiLK binary format using `rwtuc` and can be queried using `rwfilter`." style="text;html=1;align=left;verticalAlign=top;spacingTop=-4;fontSize=14;labelBackgroundColor=none;whiteSpace=wrap;fontFamily=Garamond;" parent="1" vertex="1">
          <mxGeometry x="113" y="750.5" width="981.5" height="45" as="geometry" />
        </mxCell>
        <mxCell id="V7TMuckfEKck8YOUJduE-3" value="5" style="rounded=1;whiteSpace=wrap;html=1;fillColor=#007CBD;strokeColor=none;fontColor=#FFFFFF;fontStyle=1;fontSize=22;labelBackgroundColor=none;" parent="1" vertex="1">
          <mxGeometry x="890" y="333.5" width="40" height="38" as="geometry" />
        </mxCell>
        <mxCell id="bL2OYi6fTM-XV55zECfy-6" style="edgeStyle=orthogonalEdgeStyle;rounded=0;orthogonalLoop=1;jettySize=auto;html=1;" parent="1" source="bL2OYi6fTM-XV55zECfy-1" target="4NLjydOKsZYuCcSBGG9q-1" edge="1">
          <mxGeometry relative="1" as="geometry">
            <Array as="points">
              <mxPoint x="669" y="247" />
            </Array>
          </mxGeometry>
        </mxCell>
        <mxCell id="bL2OYi6fTM-XV55zECfy-1" value="" style="outlineConnect=0;fontColor=#232F3E;gradientColor=#F34482;gradientDirection=north;fillColor=#BC1356;strokeColor=#ffffff;dashed=0;verticalLabelPosition=bottom;verticalAlign=top;align=center;html=1;fontSize=12;fontStyle=0;aspect=fixed;shape=mxgraph.aws4.resourceIcon;resIcon=mxgraph.aws4.sqs;" parent="1" vertex="1">
          <mxGeometry x="630" y="282.5" width="78" height="78" as="geometry" />
        </mxCell>
        <mxCell id="bL2OYi6fTM-XV55zECfy-2" value="SQS - Queue for managing file ingestion" style="text;html=1;strokeColor=none;fillColor=none;align=center;verticalAlign=middle;whiteSpace=wrap;rounded=0;fontFamily=Garamond;" parent="1" vertex="1">
          <mxGeometry x="608.5" y="371.5" width="121" height="20" as="geometry" />
        </mxCell>
        <mxCell id="bL2OYi6fTM-XV55zECfy-7" value="&lt;b&gt;FIFO &lt;/b&gt;" style="text;html=1;strokeColor=none;fillColor=none;align=center;verticalAlign=middle;whiteSpace=wrap;rounded=0;fontFamily=Garamond;" parent="1" vertex="1">
          <mxGeometry x="522" y="323.5" width="100" height="20" as="geometry" />
        </mxCell>
      </root>
    </mxGraphModel>
  </diagram>
</mxfile>
